:FULLY-SPECIFIED
:FORCE-ALL-JOINTS-BE-3DOF
:DEGREES
2344
root 0.838865 14.1072 -18.4962 942.818 -37.721 150.202
lfemur -7.64892 -6.32429 0.133716
ltibia 36.8215 0 0
lfoot -10.2566 26.0725 0
ltoes -43.8776 0 0
rfemur -66.7385 -10.717 13.1998
rtibia 78.6462 0 0
rfoot -11.3239 -20.0672 0
rtoes 5.39836 0 0
lowerback 20.4995 3.39139 -2.40356
upperback 0.462044 3.59343 -0.495361
thorax -11.1821 1.74414 -0.209763
lowerneck -5.58545 -1.29254 -3.95144
upperneck 2.72264 -1.22746 -0.964315
head 1.98618 -0.680286 0.479224
lclavicle -1.27192e-13 5.44129e-15 0
lhumerus -26.4872 -19.8426 79.9892
lradius 101.897 0 0
lwrist 43.678 0 0
lhand -25.7312 402.56 0
lfingers 7.12502 0 0
lthumb 0.806907 -685.9 0
rclavicle -1.27192e-13 5.44129e-15 0
rhumerus 44.0763 16.5128 -50.5978
rradius 51.7394 0 0
rwrist 4.22747 0 0
rhand -5.48184 -397.788 0
rfingers 7.12502 0 0
rthumb 20.3314 293.233 0
2345
root 0.847923 14.1353 -18.6645 947.962 -36.9633 147.043
lfemur -9.11151 -6.16172 -0.263714
ltibia 38.4644 0 0
lfoot -9.84811 25.8712 0
ltoes -42.9798 0 0
rfemur -66.1789 -10.0187 13.4509
rtibia 78.4803 0 0
rfoot -11.6494 -20.773 0
rtoes 5.15384 0 0
lowerback 20.5871 3.33635 -2.10951
upperback 0.449411 3.57969 -0.437487
thorax -11.236 1.72494 -0.31116
lowerneck -5.6901 -0.727371 -3.5036
upperneck 2.89866 -0.447435 -1.4966
head 2.04722 -0.299599 0.281766
lclavicle -1.26495e-13 5.59514e-15 0
lhumerus -22.8498 -20.615 78.3205
lradius 102.298 0 0
lwrist 41.0229 0 0
lhand -26.2758 402.441 0
lfingers 7.12502 0 0
lthumb 0.281168 -689.899 0
rclavicle -1.26495e-13 5.59514e-15 0
rhumerus 42.4399 18.0812 -51.2567
rradius 53.1861 0 0
rwrist 3.52643 0 0
rhand -5.08917 -397.812 0
rfingers 7.12502 0 0
rthumb 20.709 293.246 0
2346
root 0.854053 14.163 -18.8324 953.188 -36.2139 143.968
lfemur -10.5492 -5.98941 -0.692868
ltibia 40.1183 0 0
lfoot -9.44715 25.6909 0
ltoes -42.0643 0 0
rfemur -65.63 -9.3193 13.6985
rtibia 78.3032 0 0
rfoot -11.9813 -21.434 0
rtoes 4.90796 0 0
lowerback 20.6571 3.27826 -1.83058
upperback 0.431319 3.5611 -0.380975
thorax -11.2863 1.70414 -0.403938
lowerneck -5.7895 -0.161976 -3.05439
upperneck 3.08463 0.331942 -2.02875
head 2.11212 0.0806032 0.0837692
lclavicle -1.2556e-13 5.69521e-15 0
lhumerus -19.1991 -21.4019 76.6452
lradius 102.714 0 0
lwrist 38.3391 0 0
lhand -26.8096 402.337 0
lfingers 7.12502 0 0
lthumb -0.234146 -693.247 0
rclavicle -1.2556e-13 5.69521e-15 0
rhumerus 40.7583 19.6314 -51.9495
rradius 54.5779 0 0
rwrist 2.88626 0 0
rhand -4.71022 -397.844 0
rfingers 7.12502 0 0
rthumb 21.0733 293.25 0
2347
root 0.857416 14.1901 -18.9999 958.483 -35.468 140.965
lfemur -11.9631 -5.80735 -1.15185
ltibia 41.7816 0 0
lfoot -9.05416 25.53 0
ltoes -41.1334 0 0
rfemur -65.0907 -8.62024 13.943
rtibia 78.1162 0 0
rfoot -12.3184 -22.0515 0
rtoes 4.66046 0 0
lowerback 20.7101 3.21745 -1.56622
upperback 0.408052 3.53805 -0.32579
thorax -11.333 1.68191 -0.48847
lowerneck -5.88344 0.402281 -2.60497
upperneck 3.27947 1.10883 -2.55932
head 2.18052 0.459427 -0.114206
lclavicle -1.24399e-13 5.74522e-15 0
lhumerus -15.5411 -22.2016 74.9672
lradius 103.142 0 0
lwrist 35.6316 0 0
lhand -27.3326 402.247 0
lfingers 7.12502 0 0
lthumb -0.739049 -695.976 0
rclavicle -1.24399e-13 5.74522e-15 0
rhumerus 39.0377 21.1636 -52.6727
rradius 55.9187 0 0
rwrist 2.30181 0 0
rhand -4.34499 -397.885 0
rfingers 7.12502 0 0
rthumb 21.4243 293.245 0
2348
root 0.85817 14.2168 -19.1669 963.834 -34.7213 138.021
lfemur -13.3542 -5.61551 -1.63875
ltibia 43.4527 0 0
lfoot -8.66957 25.3869 0
ltoes -40.1893 0 0
rfemur -64.56 -7.92307 14.1844
rtibia 77.9209 0 0
rfoot -12.6598 -22.627 0
rtoes 4.41107 0 0
lowerback 20.747 3.15418 -1.31591
upperback 0.379897 3.51093 -0.271893
thorax -11.3762 1.65841 -0.565129
lowerneck -5.97172 0.964043 -2.15651
upperneck 3.48213 1.88141 -3.0869
head 2.25208 0.835976 -0.3116
lclavicle -1.23019e-13 5.7489e-15 0
lhumerus -11.8815 -23.0127 73.29
lradius 103.581 0 0
lwrist 32.9055 0 0
lhand -27.8448 402.169 0
lfingers 7.12502 0 0
lthumb -1.23355 -698.119 0
rclavicle -1.23019e-13 5.7489e-15 0
rhumerus 37.2842 22.6775 -53.4228
rradius 57.2125 0 0
rwrist 1.76797 0 0
rhand -3.99346 -397.933 0
rfingers 7.12502 0 0
rthumb 21.7622 293.232 0
2349
root 0.856475 14.243 -19.3334 969.228 -33.9692 135.122
lfemur -14.7236 -5.4139 -2.15168
ltibia 45.13 0 0
lfoot -8.29383 25.26 0
ltoes -39.2344 0 0
rfemur -64.0368 -7.22933 14.423
rtibia 77.7187 0 0
rfoot -13.0045 -23.162 0
rtoes 4.15952 0 0
lowerback 20.7684 3.08878 -1.0791
upperback 0.347141 3.48013 -0.219246
thorax -11.4161 1.63381 -0.63429
lowerneck -6.0541 1.52195 -1.7102
upperneck 3.69154 2.64782 -3.61006
head 2.32646 1.20936 -0.50785
lclavicle -1.21432e-13 5.70996e-15 0
lhumerus -8.22625 -23.8334 71.6175
lradius 104.028 0 0
lwrist 30.1657 0 0
lhand -28.3463 402.104 0
lfingers 7.12502 0 0
lthumb -1.71768 -699.706 0
rclavicle -1.21432e-13 5.70996e-15 0
rhumerus 35.504 24.1731 -54.1963
rradius 58.463 0 0
rwrist 1.2796 0 0
rhand -3.65562 -397.989 0
rfingers 7.12502 0 0
rthumb 22.0868 293.21 0
2350
root 0.852492 14.2688 -19.4992 974.652 -33.2071 132.255
lfemur -16.0725 -5.20248 -2.68872
ltibia 46.8118 0 0
lfoot -7.92736 25.1478 0
ltoes -38.2709 0 0
rfemur -63.52 -6.54057 14.659
rtibia 77.5109 0 0
rfoot -13.3514 -23.658 0
rtoes 3.90556 0 0
lowerback 20.7752 3.02152 -0.855259
upperback 0.310068 3.44603 -0.167813
thorax -11.4526 1.60825 -0.696326
lowerneck -6.13039 2.07465 -1.26721
upperneck 3.90663 3.40625 -4.12737
head 2.4033 1.57867 -0.702396
lclavicle -1.19648e-13 5.63213e-15 0
lhumerus -4.58131 -24.6623 69.9533
lradius 104.482 0 0
lwrist 27.4172 0 0
lhand -28.837 402.05 0
lfingers 7.12502 0 0
lthumb -2.19143 -700.771 0
rclavicle -1.19648e-13 5.63213e-15 0
rhumerus 33.7032 25.6504 -54.9896
rradius 59.6744 0 0
rwrist 0.831579 0 0
rhand -3.33148 -398.051 0
rfingers 7.12502 0 0
rthumb 22.3982 293.182 0
